<?xml version="1.0" encoding="utf-8"?>
<!-- Generator: Adobe Illustrator 28.0.0, SVG Export Plug-In . SVG Version: 6.00 Build 0)  -->
<svg version="1.1" id="Capa_1" xmlns="http://www.w3.org/2000/svg" xmlns:xlink="http://www.w3.org/1999/xlink" x="0px" y="0px" viewBox="0 0 1182.7 619.7" style="enable-background:new 0 0 1182.7 619.7;" xml:space="preserve">
  <style type="text/css">
	.st0{fill:#FFFFFF;}
	.st1{fill:#F8AA00;}
	.st2{fill:#B12020;}
	.st3{fill:#EE7D00;}
	.st4{fill:#814997;}
	.st5{fill:#94B422;}
</style>
  <g>
    <path class="st0" d="M109.2,485H91.2v41.7h9.7v-11.5h8.4c3.7,0,6.9-0.6,9.6-1.8c2.7-1.2,4.8-3,6.3-5.2c1.5-2.3,2.2-5,2.2-8
		c0-3.1-0.7-5.8-2.2-8.1c-1.5-2.3-3.6-4-6.3-5.2C116.1,485.7,112.9,485,109.2,485L109.2,485L109.2,485z M108.7,507.4h-7.9v-14.5h7.9
		c2.9,0,5.1,0.6,6.6,1.9c1.5,1.3,2.3,3,2.3,5.4s-0.8,4.1-2.3,5.3C113.8,506.8,111.6,507.4,108.7,507.4L108.7,507.4L108.7,507.4z
		 M156.5,527.2c3.4,0,6.4-0.7,9.1-2.1c2.7-1.4,4.7-3.4,6.3-5.9c1.5-2.5,2.3-5.4,2.3-8.5c0-3.2-0.7-6-2.3-8.5
		c-1.5-2.5-3.6-4.5-6.3-5.9c-2.7-1.4-5.7-2.1-9.1-2.1c-3.4,0-6.4,0.7-9.1,2.1c-2.7,1.4-4.8,3.4-6.3,5.9c-1.5,2.5-2.3,5.4-2.3,8.5
		c0,3.2,0.8,6,2.3,8.5c1.5,2.5,3.6,4.5,6.3,5.9C150.1,526.5,153.1,527.2,156.5,527.2L156.5,527.2z M156.5,519.6
		c-2.4,0-4.3-0.8-5.9-2.4c-1.6-1.6-2.3-3.8-2.3-6.5c0-2.7,0.8-4.9,2.3-6.5c1.6-1.6,3.5-2.4,5.9-2.4c2.4,0,4.3,0.8,5.9,2.4
		c1.5,1.6,2.3,3.8,2.3,6.5c0,2.7-0.8,4.9-2.3,6.5C160.8,518.8,158.9,519.6,156.5,519.6L156.5,519.6z M207,494.2
		c-4.1,0-7.3,1.3-9.7,3.9v-15.6H188v44.2h8.9v-3.7c2.3,2.8,5.7,4.2,10.1,4.2c3,0,5.7-0.7,8.1-2.1c2.4-1.4,4.4-3.3,5.8-5.8
		s2.1-5.4,2.1-8.7c0-3.3-0.7-6.2-2.1-8.7c-1.4-2.5-3.3-4.4-5.8-5.8C212.7,494.9,210,494.2,207,494.2L207,494.2L207,494.2z
		 M205.4,519.6c-2.4,0-4.3-0.8-5.9-2.4c-1.5-1.6-2.3-3.8-2.3-6.5c0-2.7,0.8-4.9,2.3-6.5c1.5-1.6,3.5-2.4,5.9-2.4
		c2.4,0,4.3,0.8,5.9,2.4c1.5,1.6,2.3,3.8,2.3,6.5c0,2.7-0.8,4.9-2.3,6.5C209.7,518.8,207.8,519.6,205.4,519.6L205.4,519.6z
		 M236.9,526.8h9.3v-44.2h-9.3V526.8L236.9,526.8z M275.6,494.2c-2.6,0-5.1,0.3-7.5,1c-2.4,0.7-4.5,1.6-6.3,2.9l3.3,6.5
		c1.2-0.9,2.6-1.6,4.2-2.2c1.6-0.5,3.3-0.8,5-0.8c2.5,0,4.3,0.5,5.6,1.6c1.2,1.1,1.8,2.7,1.8,4.7h-7.4c-4.7,0-8.2,0.9-10.4,2.6
		c-2.2,1.7-3.4,4.1-3.4,7c0,1.9,0.5,3.5,1.4,5c1,1.5,2.3,2.6,4.1,3.5c1.8,0.8,3.9,1.3,6.4,1.3c4.8,0,8-1.5,9.8-4.5v4h8.7v-18.3
		c0-4.8-1.3-8.3-4-10.7C284.4,495.4,280.5,494.2,275.6,494.2L275.6,494.2L275.6,494.2z M274.9,521c-1.6,0-2.9-0.4-3.8-1
		c-0.9-0.7-1.4-1.6-1.4-2.8c0-2.5,1.9-3.8,5.7-3.8h6.4v3.3c-0.5,1.4-1.4,2.5-2.6,3.2C277.9,520.6,276.5,521,274.9,521L274.9,521
		L274.9,521z M323,527.2c3.4,0,6.3-0.7,8.9-2.2c2.5-1.4,4.4-3.4,5.5-6l-7.2-3.9c-1.6,2.9-4,4.4-7.2,4.4c-2.4,0-4.4-0.8-6-2.4
		c-1.6-1.6-2.4-3.8-2.4-6.5c0-2.7,0.8-4.9,2.4-6.5c1.6-1.6,3.6-2.4,6-2.4c3.1,0,5.6,1.5,7.2,4.4l7.2-3.9c-1.2-2.6-3-4.6-5.5-6.1
		c-2.5-1.4-5.5-2.1-8.9-2.1c-3.4,0-6.5,0.7-9.2,2.1c-2.7,1.4-4.8,3.4-6.4,5.9s-2.3,5.4-2.3,8.5s0.8,6,2.3,8.5
		c1.5,2.5,3.7,4.5,6.4,5.9C316.5,526.6,319.6,527.3,323,527.2L323,527.2L323,527.2z M350.5,526.8h9.3v-32.1h-9.3V526.8L350.5,526.8z
		 M355.2,490.2c1.7,0,3.1-0.5,4.2-1.5c1.1-1,1.6-2.3,1.6-3.8c0-1.4-0.5-2.6-1.6-3.6s-2.5-1.4-4.2-1.4c-1.7,0-3.1,0.5-4.2,1.5
		c-1.1,1-1.6,2.2-1.6,3.7s0.5,2.7,1.6,3.7S353.5,490.2,355.2,490.2L355.2,490.2z M391.5,527.2c3.4,0,6.4-0.7,9.1-2.1
		c2.7-1.4,4.7-3.4,6.3-5.9c1.5-2.5,2.3-5.4,2.3-8.5c0-3.2-0.8-6-2.3-8.5c-1.5-2.5-3.6-4.5-6.3-5.9c-2.7-1.4-5.7-2.1-9.1-2.1
		s-6.4,0.7-9.1,2.1c-2.7,1.4-4.8,3.4-6.3,5.9s-2.3,5.4-2.3,8.5c0,3.2,0.7,6,2.3,8.5c1.5,2.5,3.6,4.5,6.3,5.9
		C385.1,526.5,388.1,527.2,391.5,527.2L391.5,527.2z M391.5,519.6c-2.4,0-4.4-0.8-5.9-2.4c-1.6-1.6-2.3-3.8-2.3-6.5
		c0-2.7,0.8-4.9,2.3-6.5c1.5-1.6,3.5-2.4,5.9-2.4c2.4,0,4.3,0.8,5.9,2.4s2.3,3.8,2.3,6.5c0,2.7-0.8,4.9-2.3,6.5
		C395.8,518.8,393.8,519.6,391.5,519.6L391.5,519.6z M385.9,490.6h7.3L404,482h-10L385.9,490.6L385.9,490.6z M442.5,494.2
		c-2.2,0-4.2,0.4-6,1.1c-1.8,0.7-3.4,1.8-4.6,3.1v-3.8H423v32.1h9.3v-15.9c0-2.9,0.7-5,2.1-6.5c1.4-1.4,3.3-2.2,5.6-2.2
		c2.1,0,3.7,0.6,4.8,1.9c1.1,1.3,1.7,3.2,1.7,5.7v16.9h9.3v-18.4c0-4.7-1.2-8.2-3.7-10.6C449.7,495.4,446.5,494.2,442.5,494.2
		L442.5,494.2L442.5,494.2z M519.2,494.7l-9.1,21.8l-9-21.8h-9.6l13.9,32.3l-0.1,0.3c-0.6,1.4-1.4,2.5-2.2,3.1
		c-0.8,0.6-1.8,0.9-3.1,0.9c-0.9,0-1.8-0.2-2.8-0.5s-1.8-0.9-2.5-1.5l-3.4,6.6c1,0.9,2.4,1.6,4,2.2c1.6,0.5,3.3,0.8,4.9,0.8
		c3.1,0,5.7-0.8,7.8-2.3c2.2-1.5,4-4.1,5.5-7.8l14.5-34L519.2,494.7L519.2,494.7z M595.3,485l-12.9,29.8L569.8,485h-10.4l18,41.7
		h9.5l18.1-41.7H595.3L595.3,485z M616.1,526.8h9.3v-32.1h-9.3V526.8L616.1,526.8z M620.7,490.2c1.7,0,3.1-0.5,4.2-1.5
		c1.1-1,1.6-2.3,1.6-3.8c0-1.4-0.5-2.6-1.6-3.6c-1.1-1-2.5-1.4-4.2-1.4c-1.7,0-3.1,0.5-4.2,1.5c-1.1,1-1.6,2.2-1.6,3.7
		c0,1.5,0.5,2.7,1.6,3.7C617.6,489.7,619,490.2,620.7,490.2L620.7,490.2z M664.7,494.7l-9.2,21.8l-8.9-21.8H637l13.5,32.1h9.6
		l13.5-32.1H664.7L664.7,494.7z M685.2,526.8h9.3v-32.1h-9.3V526.8L685.2,526.8z M689.8,490.2c1.7,0,3.1-0.5,4.2-1.5
		c1.1-1,1.6-2.3,1.6-3.8c0-1.4-0.5-2.6-1.6-3.6c-1.1-1-2.5-1.4-4.2-1.4c-1.7,0-3.1,0.5-4.2,1.5c-1.1,1-1.6,2.2-1.6,3.7
		c0,1.5,0.5,2.7,1.6,3.7C686.7,489.7,688.1,490.2,689.8,490.2L689.8,490.2z M742.3,510.9c0-3.3-0.7-6.3-2.2-8.8s-3.4-4.5-6-5.8
		s-5.4-2-8.5-2c-3.1,0-6.1,0.7-8.7,2.1c-2.6,1.4-4.7,3.4-6.1,5.9c-1.5,2.5-2.2,5.4-2.2,8.5c0,3.1,0.8,6,2.3,8.5
		c1.5,2.5,3.7,4.5,6.4,5.9c2.8,1.4,6,2.1,9.6,2.1c5.8,0,10.2-1.7,13.2-5.2l-5-5.4c-1.1,1.1-2.3,1.9-3.6,2.3
		c-1.3,0.5-2.8,0.7-4.4,0.7c-2.4,0-4.5-0.6-6.1-1.7c-1.6-1.2-2.7-2.7-3.1-4.7h24.3C742.2,511.8,742.3,511,742.3,510.9L742.3,510.9
		L742.3,510.9z M725.7,501.3c2.1,0,3.8,0.6,5.2,1.8c1.4,1.2,2.3,2.8,2.6,4.9h-15.8c0.3-2.1,1.2-3.7,2.6-4.9
		C721.8,501.9,723.6,501.3,725.7,501.3L725.7,501.3L725.7,501.3z M775.7,494.2c-2.2,0-4.2,0.4-6,1.1c-1.8,0.7-3.4,1.8-4.6,3.1v-3.8
		h-8.9v32.1h9.3v-15.9c0-2.9,0.7-5,2.1-6.5c1.4-1.4,3.3-2.2,5.6-2.2c2.1,0,3.7,0.6,4.8,1.9c1.1,1.3,1.7,3.2,1.7,5.7v16.9h9.3v-18.4
		c0-4.7-1.2-8.2-3.7-10.6C783,495.4,779.7,494.2,775.7,494.2L775.7,494.2L775.7,494.2z M828.9,482.5v15.6c-2.3-2.6-5.5-3.9-9.6-3.9
		c-3,0-5.7,0.7-8.2,2c-2.4,1.4-4.4,3.3-5.7,5.8s-2.1,5.4-2.1,8.7c0,3.3,0.7,6.2,2.1,8.7c1.4,2.5,3.3,4.4,5.7,5.8
		c2.4,1.4,5.2,2,8.2,2c4.4,0,7.7-1.4,10-4.2v3.7h8.9v-44.2L828.9,482.5L828.9,482.5z M820.9,519.6c-2.4,0-4.4-0.8-5.9-2.4
		c-1.6-1.6-2.3-3.8-2.3-6.5c0-2.7,0.8-4.9,2.3-6.5c1.5-1.6,3.5-2.4,5.9-2.4c2.4,0,4.3,0.8,5.8,2.4c1.5,1.6,2.3,3.8,2.3,6.5
		c0,2.7-0.8,4.9-2.3,6.5C825.2,518.8,823.3,519.6,820.9,519.6L820.9,519.6z M867.5,494.2c-2.6,0-5.1,0.3-7.5,1s-4.5,1.6-6.3,2.9
		l3.3,6.5c1.2-0.9,2.6-1.6,4.2-2.2c1.6-0.5,3.3-0.8,5-0.8c2.5,0,4.3,0.5,5.6,1.6c1.2,1.1,1.8,2.7,1.8,4.7h-7.4
		c-4.7,0-8.2,0.9-10.4,2.6c-2.2,1.7-3.4,4.1-3.4,7c0,1.9,0.5,3.5,1.4,5c1,1.5,2.3,2.6,4.1,3.5c1.8,0.8,3.9,1.3,6.4,1.3
		c4.8,0,8-1.5,9.8-4.5v4h8.7v-18.3c0-4.8-1.3-8.3-4-10.7C876.3,495.4,872.5,494.2,867.5,494.2L867.5,494.2L867.5,494.2z M866.8,521
		c-1.6,0-2.9-0.4-3.8-1c-0.9-0.7-1.4-1.6-1.4-2.8c0-2.5,1.9-3.8,5.7-3.8h6.4v3.3c-0.5,1.4-1.4,2.5-2.6,3.2S868.4,521,866.8,521
		L866.8,521L866.8,521z M944.1,527.5c3.6,0,6.9-0.6,9.8-1.9c2.9-1.3,5.4-3.1,7.4-5.5l-6.2-5.7c-2.8,3.3-6.3,4.9-10.5,4.9
		c-2.6,0-4.9-0.6-6.9-1.7c-2-1.1-3.6-2.7-4.7-4.7c-1.1-2-1.7-4.3-1.7-6.9s0.6-4.9,1.7-6.9c1.1-2,2.7-3.6,4.7-4.7
		c2-1.1,4.3-1.7,6.9-1.7c4.2,0,7.7,1.6,10.5,4.9l6.2-5.7c-2-2.4-4.4-4.2-7.4-5.5c-2.9-1.3-6.2-1.9-9.8-1.9c-4.3,0-8.2,0.9-11.6,2.8
		c-3.4,1.8-6.1,4.4-8.1,7.7c-2,3.3-3,7-3,11.1c0,4.1,1,7.8,3,11.1c2,3.3,4.7,5.8,8.1,7.7C936,526.6,939.9,527.5,944.1,527.5
		L944.1,527.5L944.1,527.5z M994.5,494.2c-2.1,0-4,0.3-5.7,1c-1.8,0.7-3.2,1.6-4.5,2.8v-15.5H975v44.2h9.3v-15.9
		c0-2.9,0.7-5,2.1-6.5s3.3-2.2,5.6-2.2c2.1,0,3.7,0.6,4.8,1.9c1.1,1.3,1.7,3.2,1.7,5.7v16.9h9.3v-18.4c0-4.7-1.2-8.2-3.7-10.6
		C1001.6,495.4,998.4,494.2,994.5,494.2L994.5,494.2L994.5,494.2z M1023.9,526.8h9.3v-32.1h-9.3V526.8L1023.9,526.8z M1028.6,490.2
		c1.7,0,3.1-0.5,4.2-1.5c1.1-1,1.6-2.3,1.6-3.8c0-1.4-0.5-2.6-1.6-3.6c-1.1-1-2.5-1.4-4.2-1.4c-1.7,0-3.1,0.5-4.2,1.5
		c-1.1,1-1.6,2.2-1.6,3.7c0,1.5,0.5,2.7,1.6,3.7C1025.5,489.7,1026.9,490.2,1028.6,490.2L1028.6,490.2z M1049.6,526.8h9.3v-44.2
		h-9.3V526.8L1049.6,526.8z M1106.7,510.9c0-3.3-0.7-6.3-2.2-8.8c-1.4-2.5-3.4-4.5-6-5.8c-2.5-1.4-5.4-2-8.5-2s-6.1,0.7-8.7,2.1
		c-2.6,1.4-4.7,3.4-6.1,5.9c-1.5,2.5-2.2,5.4-2.2,8.5s0.7,6,2.3,8.5c1.5,2.5,3.7,4.5,6.4,5.9c2.8,1.4,6,2.1,9.6,2.1
		c5.8,0,10.2-1.7,13.2-5.2l-4.9-5.4c-1.1,1.1-2.3,1.9-3.6,2.3c-1.3,0.5-2.8,0.7-4.4,0.7c-2.4,0-4.5-0.6-6.1-1.7
		c-1.6-1.2-2.7-2.7-3.1-4.7h24.3C1106.7,511.8,1106.7,511,1106.7,510.9L1106.7,510.9L1106.7,510.9z M1090.1,501.3
		c2.1,0,3.8,0.6,5.2,1.8s2.3,2.8,2.6,4.9h-15.8c0.3-2.1,1.2-3.7,2.6-4.9C1086.2,501.9,1088,501.3,1090.1,501.3L1090.1,501.3
		L1090.1,501.3z" />
    <path class="st0" d="M155.9,131.2c9.6-5.2,20.6-7.8,32.8-7.8c19.7,0,36.4,7.6,49.7,22.5l1.3,1.4l33-29.5l-1.2-1.3
		C261.7,105,249.4,96.1,235,90c-14.4-6.1-30.8-9.2-48.6-9.2c-21.2,0-40.5,4.5-57.4,13.3c-17,8.9-30.5,21.3-40.3,37
		C78.9,146.9,74,165,74,184.7s4.9,37.8,14.7,53.5c9.7,15.7,23.3,28.2,40.3,37c17,8.8,36.2,13.3,57.2,13.3c17.8,0,34.2-3.1,48.7-9.2
		c14.5-6.1,26.9-15.1,36.8-26.7l1.1-1.3l-33-29.5l-1.3,1.4c-13.3,15.1-30.1,22.8-49.7,22.8c-12.2,0-23.2-2.6-32.8-7.8
		c-9.5-5.2-17.1-12.5-22.4-21.7c-5.3-9.3-8.1-20-8.1-31.8s2.7-22.5,8.1-31.8C138.8,143.7,146.4,136.4,155.9,131.2L155.9,131.2
		L155.9,131.2z" />
    <polygon class="st0" points="350.5,202.9 445,202.9 445,163.7 350.5,163.7 350.5,124.6 457.5,124.6 457.5,84.3 299.9,84.3 
		299.9,285.2 461.3,285.2 461.3,244.9 350.5,244.9 350.5,202.9 	" />
    <polygon class="st0" points="635.1,200.8 537.3,84.9 536.8,84.3 495,84.3 495,285.2 545.3,285.2 545.3,168.7 643.4,284.6 
		644,285.2 685.4,285.2 685.4,84.3 635.1,84.3 635.1,200.8 	" />
    <path class="st0" d="M1094.6,131.7c-9.4-15.8-22.4-28.3-38.6-37.3S1021.1,81,1000.7,81c-20.4,0-39,4.5-55.4,13.5
		S916,116,906.7,131.8c-9.3,15.8-14,33.7-14,53.3s4.7,37.6,14,53.3c9.3,15.8,22.3,28.3,38.6,37.3c16.4,9,35,13.5,55.4,13.5
		s39-4.5,55.2-13.5c16.3-9,29.3-21.5,38.6-37.3c9.4-15.8,14.1-33.7,14.1-53.3S1103.9,147.5,1094.6,131.7L1094.6,131.7L1094.6,131.7z
		 M1060.3,185.1c0,12-2.6,22.9-7.8,32.3c-5.1,9.4-12.3,16.8-21.4,22.1c-9,5.2-19.3,7.9-30.5,7.9c-11.2,0-21.5-2.7-30.5-7.9
		c-9-5.2-16.2-12.7-21.4-22.1c-5.2-9.4-7.8-20.3-7.8-32.3c0-12,2.6-22.9,7.8-32.3c5.2-9.4,12.3-16.8,21.4-22.1
		c9-5.2,19.3-7.9,30.5-7.9c11.2,0,21.5,2.7,30.5,7.9c9,5.2,16.2,12.7,21.4,22.1C1057.7,162.2,1060.3,173.1,1060.3,185.1
		L1060.3,185.1z" />
    <path class="st0" d="M865.9,193.7c-6.9-7.9-15.2-13.7-24.8-17.4c-9.5-3.6-21.8-7.2-36.6-10.8c-14.1-3.2-24.7-6.4-31.5-9.7
		c-6.5-3.1-9.7-7.7-9.7-14s2.8-11.5,8.5-15.4c5.8-4,14.9-6,27.1-6c17.6,0,35.5,5.2,53.2,15.4l1.4,0.8l14.9-37.3l-0.9-0.6
		c-9-5.7-19.6-10.2-31.5-13.2c-11.9-3-24.3-4.6-36.7-4.6c-17.9,0-33.3,2.8-45.7,8.3c-12.5,5.6-22,13.2-28.2,22.7
		c-6.2,9.5-9.4,20.3-9.4,32c0,13.5,3.5,24.4,10.4,32.6c6.9,8.1,15.2,14,24.9,17.7c9.5,3.6,21.8,7.2,36.6,10.8
		c9.5,2.2,17.2,4.3,22.8,6.2c5.5,1.8,10,4.3,13.4,7.3c3.3,2.9,5,6.4,5,10.8c0,6-2.8,10.7-8.6,14.4c-5.9,3.7-15.1,5.6-27.6,5.6
		c-11.3,0-22.7-1.9-34-5.6c-11.3-3.7-21.1-8.7-29.3-14.8l-1.4-1l-16.4,37l0.8,0.6c8.8,6.9,20.6,12.5,35,16.8
		c14.4,4.3,29.5,6.4,45,6.4c17.9,0,33.3-2.8,45.8-8.3c12.6-5.6,22.2-13.2,28.5-22.7c6.3-9.5,9.5-20.2,9.5-31.7
		C876.4,212.5,872.9,201.7,865.9,193.7L865.9,193.7L865.9,193.7z" />
    <path class="st1" d="M194.3,369.5c0,11.7-9.6,21.2-21.5,21.2s-21.5-9.5-21.5-21.2s9.6-21.2,21.5-21.2
		C184.7,348.3,194.3,357.8,194.3,369.5" />
    <path class="st1" d="M172.9,438.7c-3.1,0-6.2-1.2-8.6-3.5l-86.7-86.4c-4.7-4.7-4.7-12.4,0-17.1c4.7-4.7,12.4-4.7,17.1,0l78.1,77.9
		l78.1-77.9c4.7-4.7,12.4-4.7,17.1,0c4.7,4.7,4.7,12.4,0,17.1l-86.7,86.4C179.1,437.5,176,438.7,172.9,438.7L172.9,438.7
		L172.9,438.7z" />
    <path class="st2" d="M404.2,369.5c0,11.7-9.6,21.2-21.5,21.2c-11.8,0-21.5-9.5-21.5-21.2s9.6-21.2,21.5-21.2
		C394.6,348.3,404.2,357.8,404.2,369.5" />
    <path class="st2" d="M382.8,438.7c-3.1,0-6.2-1.2-8.6-3.5l-86.7-86.4c-4.7-4.7-4.7-12.4,0-17.1c4.7-4.7,12.4-4.7,17.1,0l78.1,77.9
		l78.1-77.9c4.7-4.7,12.4-4.7,17.1,0c4.7,4.7,4.7,12.4,0,17.1l-86.7,86.4C389,437.5,385.9,438.7,382.8,438.7L382.8,438.7
		L382.8,438.7z" />
    <path class="st3" d="M614.2,369.5c0,11.7-9.6,21.2-21.5,21.2c-11.8,0-21.5-9.5-21.5-21.2s9.6-21.2,21.5-21.2
		C604.6,348.3,614.2,357.8,614.2,369.5" />
    <path class="st3" d="M592.7,438.7c-3.1,0-6.2-1.2-8.6-3.5l-86.7-86.4c-4.7-4.7-4.7-12.4,0-17.1c4.7-4.7,12.4-4.7,17.1,0l78.1,77.9
		l78.1-77.9c4.7-4.7,12.4-4.7,17.1,0c4.7,4.7,4.7,12.4,0,17.1l-86.7,86.4C598.9,437.5,595.8,438.7,592.7,438.7L592.7,438.7
		L592.7,438.7z" />
    <path class="st4" d="M329.8,438.6c-3.1,0-6.2-1.2-8.6-3.5l-43.4-43.2L234.5,435c-4.7,4.7-12.4,4.7-17.1,0c-4.7-4.7-4.7-12.4,0-17.1
		l51.9-51.8c2.3-2.3,5.4-3.5,8.6-3.5c3.2,0,6.3,1.3,8.6,3.5l51.9,51.8c4.7,4.7,4.7,12.4,0,17.1C336,437.4,332.9,438.6,329.8,438.6
		L329.8,438.6L329.8,438.6z" />
    <path class="st5" d="M539.4,438.6c-3.1,0-6.2-1.2-8.6-3.5l-43.4-43.2L444.1,435c-4.7,4.7-12.4,4.7-17.1,0c-4.7-4.7-4.7-12.4,0-17.1
		l51.9-51.8c2.3-2.3,5.4-3.5,8.6-3.5c3.2,0,6.3,1.3,8.6,3.5l51.9,51.8c4.7,4.7,4.7,12.4,0,17.1C545.6,437.4,542.5,438.6,539.4,438.6
		L539.4,438.6L539.4,438.6z" />
    <path class="st0" d="M731.8,426.9l40-39.3c7.5-7.3,12.6-13.7,15.3-19.3c2.7-5.6,4-11.4,4-17.5c0-9.9-3.5-17.6-10.5-23.3
		c-7-5.7-16.5-8.5-28.5-8.5c-9,0-17,1.5-24.1,4.4c-7.1,2.9-13,7.1-17.6,12.4l8.6,7.4c7.6-8.7,18.3-13.1,32.1-13.1
		c8.9,0,15.7,1.9,20.4,5.8s7.2,9.3,7.2,16.2c0,4.5-1.1,8.9-3.3,13.4c-2.2,4.4-6.4,9.7-12.5,15.7L714,429.1v8.6h82.6v-10.8
		L731.8,426.9L731.8,426.9z M856.3,438.7c9.1,0,17.2-2.4,24.3-7.2c7.1-4.8,12.7-11.7,16.7-20.8c4-9,6.1-19.6,6.1-31.9
		c0-12.2-2-22.8-6.1-31.9c-4-9-9.6-15.9-16.7-20.8c-7.1-4.8-15.2-7.2-24.3-7.2c-9.1,0-17.2,2.4-24.3,7.2
		c-7.1,4.8-12.7,11.7-16.7,20.8c-4,9-6,19.6-6,31.9c0,12.2,2,22.8,6,31.9c4,9,9.5,15.9,16.7,20.8
		C839.1,436.3,847.2,438.7,856.3,438.7L856.3,438.7z M856.3,427.6c-6.8,0-12.9-1.9-18.1-5.7c-5.2-3.8-9.3-9.4-12.2-16.7
		c-2.9-7.3-4.4-16.1-4.4-26.4c0-10.3,1.5-19.1,4.4-26.4c2.9-7.3,7-12.8,12.2-16.7c5.2-3.8,11.2-5.7,18.1-5.7
		c6.8,0,12.9,1.9,18.1,5.7s9.3,9.4,12.2,16.7c2.9,7.3,4.4,16.1,4.4,26.4c0,10.3-1.5,19.1-4.4,26.4c-2.9,7.3-7,12.8-12.2,16.7
		C869.1,425.7,863.1,427.6,856.3,427.6L856.3,427.6z M934.3,426.9l40-39.3c7.5-7.3,12.6-13.7,15.3-19.3c2.7-5.6,4-11.4,4-17.5
		c0-9.9-3.5-17.6-10.5-23.3c-7-5.7-16.5-8.5-28.5-8.5c-9,0-17,1.5-24.1,4.4c-7.1,2.9-13,7.1-17.6,12.4l8.6,7.4
		c7.6-8.7,18.3-13.1,32.1-13.1c8.9,0,15.7,1.9,20.4,5.8c4.8,3.9,7.2,9.3,7.2,16.2c0,4.5-1.1,8.9-3.3,13.4
		c-2.2,4.4-6.4,9.7-12.5,15.7l-48.9,47.9v8.6H999v-10.8L934.3,426.9L934.3,426.9z M1108.7,396h-23.5v-27.2h-11.8V396h-51.1l60.2-76
		H1069l-62.4,78v8.7h66.4v30.9h12.1v-30.9h23.5V396L1108.7,396L1108.7,396z" />
  </g>
</svg>